<?xml version="1.0" encoding="utf-8"?>
<svg xmlns="http://www.w3.org/2000/svg" viewBox="122.823 60.307 64.097 64.097" width="64.097px" height="64.097px"><g id="object-4"><path fill="#FFFFFF" d="M 154.273 87.408 C 153.369 87.516 152.537 87.866 151.849 88.393 C 151.744 88.473 151.64 88.557 151.544 88.645 C 151.476 88.706 151.41 88.767 151.347 88.831 C 150.576 89.602 150.059 90.621 149.923 91.759 L 132.734 91.759 C 132.757 91.957 132.793 92.153 132.793 92.357 C 132.793 92.562 132.758 92.757 132.734 92.956 L 149.923 92.956 C 150.206 95.339 152.169 97.204 154.595 97.337 C 154.687 97.341 154.779 97.345 154.872 97.345 C 154.884 97.345 154.894 97.343 154.909 97.343 C 155.064 97.341 155.22 97.333 155.375 97.319 C 155.377 97.319 155.379 97.319 155.382 97.319 C 156.455 97.211 157.428 96.759 158.191 96.08 C 158.202 96.069 158.212 96.06 158.223 96.051 C 158.252 96.026 158.28 95.998 158.307 95.972 C 158.336 95.944 158.368 95.914 158.396 95.885 C 158.409 95.875 158.417 95.864 158.43 95.852 C 158.474 95.806 158.519 95.76 158.561 95.713 C 158.57 95.703 158.577 95.694 158.584 95.688 C 159.375 94.805 159.857 93.639 159.857 92.361 C 159.857 89.81 157.941 87.709 155.468 87.413 L 155.468 70.219 C 155.269 70.241 155.074 70.279 154.871 70.279 C 154.665 70.279 154.47 70.242 154.271 70.219 L 154.271 87.408 L 154.273 87.408 Z" id="object-0"/><path fill="#FFFFFF" d="M 127.808 87.371 C 125.056 87.371 122.823 89.603 122.823 92.356 C 122.823 94.905 124.744 96.984 127.212 97.282 L 127.212 114.493 C 127.41 114.471 127.605 114.433 127.809 114.433 C 128.014 114.433 128.21 114.469 128.408 114.493 L 128.408 97.282 C 130.876 96.983 132.795 94.905 132.795 92.356 C 132.793 89.603 130.561 87.371 127.808 87.371 Z" id="object-1"/><path fill="#FFFFFF" d="M 181.934 60.307 C 179.386 60.307 177.307 62.226 177.008 64.695 L 159.798 64.695 C 159.499 62.226 157.42 60.307 154.873 60.307 C 152.118 60.307 149.887 62.538 149.887 65.293 C 149.887 68.046 152.118 70.278 154.873 70.278 C 157.42 70.278 159.499 68.358 159.798 65.89 L 177.009 65.89 C 177.307 68.358 179.386 70.278 181.935 70.278 C 184.691 70.278 186.92 68.046 186.92 65.293 C 186.92 62.54 184.69 60.307 181.934 60.307 Z M 176.948 65.294 C 176.948 65.11 176.978 64.934 177.002 64.756 C 176.983 64.935 176.948 65.109 176.948 65.294 C 176.948 65.477 176.983 65.65 177.002 65.829 C 176.978 65.651 176.948 65.476 176.948 65.294 Z" id="object-2"/><circle fill="#FFFFFF" cx="127.808" cy="119.419" r="4.985" id="object-3"/></g></svg>